#
# object 9109989419691265461
#

o 9109989419691265461
v -5712.500000 84.000490 -200.000000
v -9737.500000 -3991.001000 -200.000000
v -5712.500000 -3991.000000 -200.000000
v -9737.500000 83.999510 -200.000000
v -4537.500000 1184.001000 200.000000
v -6937.500000 -3991.000000 200.000000
v -4537.500000 -3990.998000 200.000000
v -6937.500000 1184.000000 200.000000
v -3437.500000 5559.000000 200.000000
v -3434.204000 8759.000000 200.000000
v -5037.500000 8759.000000 200.000000
v -5037.500000 5259.001000 200.000000
v -237.503400 5559.000000 200.000000
v -237.502900 3959.000000 200.000000
v -11462.500000 5259.000000 200.000000
v -11462.500000 1184.001000 200.000000
v -4537.500000 1184.001000 200.000000
v -4537.500000 2359.001000 199.999900
v 1362.498000 3959.001000 200.000000
v 1362.499000 2359.001000 200.000000
v 6662.500000 1984.000000 177.057000
v 6662.500000 -6005.768000 177.057000
v 8262.500000 1984.000000 177.057000
v 8262.500000 1234.000000 177.057000
v 8262.500000 -6009.000000 177.057000
v 8262.500000 -8759.000000 177.057000
v 10687.500000 -8759.000000 177.057000
v 10687.500000 -6009.000000 177.057000
v 11462.500000 1234.000000 177.057000
v 11462.500000 -6009.000000 177.057000
# 30 vertices

# 0 UVs

vn -0.000000 -0.000000 1.000000
vn -0.000000 -0.000000 1.000000
vn -0.000000 -0.000000 1.000000
vn -0.000000 -0.000000 1.000000
vn -0.000000 -0.000000 1.000000
vn -0.000000 -0.000000 1.000000
vn -0.000000 -0.000000 1.000000
vn -0.000000 -0.000000 1.000000
vn -0.000000 -0.000000 1.000000
vn -0.000000 -0.000000 1.000000
vn -0.000000 -0.000000 1.000000
vn -0.000000 -0.000000 1.000000
vn -0.000000 -0.000000 1.000000
vn -0.000000 -0.000000 1.000000
vn -0.000000 -0.000000 1.000000
vn -0.000000 -0.000000 1.000000
vn -0.000000 -0.000000 1.000000
vn -0.000000 -0.000000 1.000000
vn -0.000000 -0.000000 1.000000
vn -0.000000 -0.000000 1.000000
vn -0.000000 -0.000000 1.000000
vn -0.000000 -0.000000 1.000000
vn -0.000000 -0.000000 1.000000
vn -0.000000 -0.000000 1.000000
vn -0.000000 -0.000000 1.000000
vn -0.000000 -0.000000 1.000000
vn -0.000000 -0.000000 1.000000
vn -0.000000 -0.000000 1.000000
vn -0.000000 -0.000000 1.000000
vn -0.000000 -0.000000 1.000000
# 30 Normals

g 9109989419691265461
f 1//1 2//2 3//3
f 4//4 2//2 1//1
f 5//5 6//6 7//7
f 8//8 6//6 5//5
f 9//9 10//10 11//11
f 12//12 9//9 11//11
f 13//13 9//9 12//12
f 14//14 13//13 12//12
f 15//15 16//16 12//12
f 16//16 17//17 12//12
f 17//17 18//18 12//12
f 18//18 14//14 12//12
f 19//19 14//14 18//18
f 20//20 19//19 18//18
f 21//21 22//22 23//23
f 23//23 22//22 24//24
f 22//22 25//25 24//24
f 26//26 27//27 25//25
f 27//27 28//28 25//25
f 25//25 28//28 24//24
f 28//28 29//29 24//24
f 30//30 29//29 28//28
# 22 Faces

