#
# object 9109989419691265461
#

o 9109989419691265461
v 700.000000 600.000000 162.970000
v 700.000000 -200.000000 162.970000
v 100.001000 -200.000000 162.970000
v 100.000000 1400.000000 162.970000
v 1700.000000 600.000000 162.970000
v 1700.001000 1400.000000 162.970000
v -1700.000000 -1000.000000 162.030000
v -1700.000000 -1400.000000 162.030000
v -2500.000000 -1400.000000 162.030000
v -2500.000000 -600.000000 162.030000
v -1100.000000 -1000.000000 162.030000
v -500.000000 -600.000000 162.030200
v -1100.000000 -1200.000000 162.030000
v -500.000000 -1202.503000 162.030000
v -500.000000 -1400.000000 162.030000
v -1300.000000 -1202.503000 162.029900
v -1300.000000 -1400.000000 162.030000
v 1700.000000 600.000000 237.970000
v 1699.999000 -800.000000 237.970000
v 700.000000 600.000000 237.970000
v 700.001000 -200.000000 237.970000
v 1100.000000 -800.000000 237.970000
v 100.000300 -600.000000 237.970000
v 100.000000 -200.000000 237.970000
v -500.000000 -600.000000 237.970000
v -500.000000 -1400.000000 237.970000
v 1099.999000 -1400.000000 237.970000
v 1300.000000 -1400.000000 -237.970100
v -500.000000 -1400.000000 -237.970100
v 1300.000000 -800.000000 -237.969800
v 100.000000 -600.000000 -237.969800
v -500.000000 -600.000000 -237.970100
v 1700.000000 -800.000000 -237.969800
v 100.000000 1400.000000 -237.970100
v 1700.001000 1400.000000 -237.970100
v 1700.001000 602.783700 -237.970100
v 2100.000000 -600.000000 -237.969800
v 1700.000000 -1000.000000 -237.969800
v 2100.000000 -1000.000000 -237.969800
v 2500.000000 597.216300 -237.970100
v 2500.000000 -600.000000 -237.970100
# 41 vertices

# 0 UVs

vn 0.000000 0.000000 -1.000000
vn 0.000000 0.000000 -1.000000
vn 0.000000 0.000000 -1.000000
vn 0.000000 0.000000 -1.000000
vn 0.000000 0.000000 -1.000000
vn 0.000000 0.000000 -1.000000
vn 0.000000 0.000000 -1.000000
vn 0.000000 0.000000 -1.000000
vn 0.000000 0.000000 -1.000000
vn 0.000000 0.000000 -1.000000
vn 0.000000 0.000000 -1.000000
vn 0.000000 0.000000 -1.000000
vn 0.000000 0.000000 -1.000000
vn 0.000000 0.000000 -1.000000
vn 0.000000 0.000000 -1.000000
vn 0.000000 0.000000 -1.000000
vn 0.000000 0.000000 -1.000000
vn 0.000000 0.000000 -1.000000
vn 0.000000 0.000000 -1.000000
vn 0.000000 0.000000 -1.000000
vn 0.000000 0.000000 -1.000000
vn 0.000000 0.000000 -1.000000
vn 0.000000 0.000000 -1.000000
vn 0.000000 0.000000 -1.000000
vn 0.000000 0.000000 -1.000000
vn 0.000000 0.000000 -1.000000
vn 0.000000 0.000000 -1.000000
vn 0.000000 0.000000 -1.000000
vn 0.000000 0.000000 -1.000000
vn 0.000000 0.000000 -1.000000
vn 0.000000 0.000000 -1.000000
vn 0.000000 0.000000 -1.000000
vn 0.000000 0.000000 -1.000000
vn 0.000000 0.000000 -1.000000
vn 0.000000 0.000000 -1.000000
vn 0.000000 0.000000 -1.000000
vn 0.000000 0.000000 -1.000000
vn 0.000000 0.000000 -1.000000
vn 0.000000 0.000000 -1.000000
vn 0.000000 0.000000 -1.000000
vn 0.000000 0.000000 -1.000000
# 41 Normals

g 9109989419691265461
f 1//1 2//2 3//3
f 4//4 1//1 3//3
f 5//5 1//1 4//4
f 6//6 5//5 4//4
f 7//7 8//8 9//9
f 10//10 7//7 9//9
f 11//11 7//7 10//10
f 12//12 11//11 10//10
f 13//13 11//11 12//12
f 14//14 13//13 12//12
f 13//13 14//14 15//15
f 16//16 13//13 15//15
f 17//17 16//16 15//15
f 18//18 19//19 20//20
f 20//20 19//19 21//21
f 19//19 22//22 21//21
f 23//23 24//24 21//21
f 22//22 23//23 21//21
f 25//25 23//23 22//22
f 26//26 25//25 22//22
f 27//27 26//26 22//22
f 28//28 29//29 30//30
f 30//30 29//29 31//31
f 29//29 32//32 31//31
f 33//33 30//30 31//31
f 34//34 35//35 31//31
f 35//35 36//36 31//31
f 37//37 33//33 31//31
f 36//36 37//37 31//31
f 38//38 33//33 37//37
f 39//39 38//38 37//37
f 40//40 37//37 36//36
f 41//41 37//37 40//40
# 33 Faces

