{
  "asset": {
    "copyright": "",
    "generator": "SharpGLTF 1.0.0-alpha0022",
    "version": "2.0"
  },
  "accessors": [
    {
      "bufferView": 0,
      "componentType": 5126,
      "count": 30,
      "max": [
        114.625,
        87.58999633789062,
        2
      ],
      "min": [
        -114.625,
        -87.58999633789062,
        -2
      ],
      "type": "VEC3"
    },
    {
      "bufferView": 1,
      "componentType": 5126,
      "count": 30,
      "max": [
        -2.3524715508926874E-10,
        -7.228947662696328E-09,
        1
      ],
      "min": [
        -2.3524715508926874E-10,
        -7.228947662696328E-09,
        1
      ],
      "type": "VEC3"
    },
    {
      "bufferView": 2,
      "componentType": 5126,
      "count": 30,
      "max": [
        0.0002768782142084092,
        1,
        7.629402887232573E-08,
        1
      ],
      "min": [
        -8.365050598513335E-05,
        1,
        -1.0384541582197926E-07,
        1
      ],
      "type": "VEC4"
    },
    {
      "bufferView": 3,
      "componentType": 5126,
      "count": 30,
      "max": [
        0.49803921580314636,
        0.49803921580314636,
        0.49803921580314636,
        0.6235294342041016
      ],
      "min": [
        0.49803921580314636,
        0.49803921580314636,
        0.49803921580314636,
        0.6235294342041016
      ],
      "type": "VEC4"
    },
    {
      "bufferView": 4,
      "componentType": 5126,
      "count": 30,
      "max": [
        1.2884026765823364,
        13.780336380004883
      ],
      "min": [
        -17.834915161132812,
        -9.714055061340332
      ],
      "type": "VEC2"
    },
    {
      "bufferView": 5,
      "componentType": 5123,
      "count": 66,
      "type": "SCALAR"
    }
  ],
  "bufferViews": [
    {
      "buffer": 0,
      "byteLength": 360,
      "byteOffset": 960,
      "byteStride": 12,
      "target": 34962
    },
    {
      "buffer": 0,
      "byteLength": 360,
      "byteOffset": 1320,
      "byteStride": 12,
      "target": 34962
    },
    {
      "buffer": 0,
      "byteLength": 480,
      "byteStride": 16,
      "target": 34962
    },
    {
      "buffer": 0,
      "byteLength": 480,
      "byteOffset": 480,
      "byteStride": 16,
      "target": 34962
    },
    {
      "buffer": 0,
      "byteLength": 360,
      "byteOffset": 1680,
      "byteStride": 12,
      "target": 34962
    },
    {
      "buffer": 0,
      "byteLength": 132,
      "byteOffset": 2040,
      "target": 34963
    }
  ],
  "buffers": [
    {
      "byteLength": 2172,
      "uri": "ind_ext_warehouse_ground_03.bin"
    }
  ],
  "materials": [
    {
      "name": "2446363714966970787"
    },
    {
      "name": "12319405728220996236"
    },
    {
      "name": "9577527147088643339"
    }
  ],
  "meshes": [
    {
      "name": "9109989419691265461",
      "primitives": [
        {
          "attributes": {
            "POSITION": 0,
            "NORMAL": 1,
            "TANGENT": 2,
            "COLOR_0": 3,
            "TEXCOORD_0": 4
          },
          "indices": 5,
          "material": 0
        }
      ]
    }
  ],
  "nodes": [
    {
      "name": "9633089663276284361",
      "children": [
        1,
        2,
        3,
        4,
        5,
        6,
        7,
        8,
        9,
        10
      ]
    },
    {
      "name": "9109989419691265461",
      "matrix": [
        1,
        0,
        0,
        0,
        0,
        1,
        0,
        0,
        0,
        0,
        1,
        0,
        -4.625,
        0.4099951,
        8,
        1
      ],
      "mesh": 0
    },
    {
      "name": "874725224427011441"
    },
    {
      "name": "5577796673305740956"
    },
    {
      "name": "883540431978425826",
      "matrix": [
        1,
        1.9109063E-16,
        -2.098242E-18,
        0,
        -1.110223E-16,
        1,
        0,
        0,
        0,
        0,
        1,
        0,
        0,
        0,
        0,
        1
      ]
    },
    {
      "name": "16656925805851894547",
      "matrix": [
        1,
        -1.7347236E-16,
        -5.131467E-17,
        0,
        0,
        1,
        0,
        0,
        0,
        0,
        1,
        0,
        0,
        0,
        -6.1035155E-07,
        1
      ]
    },
    {
      "name": "5309739152071755345"
    },
    {
      "name": "889642240676730432"
    },
    {
      "name": "2730956144823535034"
    },
    {
      "name": "1544494065181603752",
      "matrix": [
        1,
        -2.7755576E-17,
        0,
        0,
        0,
        1,
        0,
        0,
        0,
        0,
        1,
        0,
        0,
        0,
        0,
        1
      ]
    },
    {
      "name": "17169939534875882963"
    }
  ],
  "scenes": [
    {
      "nodes": [
        0
      ]
    }
  ]
}