#
# object 9109989419691265461
#

o 9109989419691265461
v -2099.999000 0.000000 1400.000000
v -1279.514000 0.000000 1400.000000
v -2100.000000 0.000000 989.360400
v -1279.514000 0.000000 989.360400
v -2100.000000 0.000000 600.069800
v -1279.514000 0.000000 600.069800
v -453.535400 0.000000 1400.000000
v -453.535400 0.000000 600.069800
v -453.535400 0.000000 989.360400
v 500.000200 0.000000 1400.000000
v 500.000200 0.000000 600.069800
v 500.000200 0.000000 989.360400
v 974.227100 0.000000 989.360400
v 974.227100 0.000000 1400.000000
v 1500.000000 0.000000 1400.000000
v 1500.000000 0.000000 989.360400
v 974.227100 0.000000 299.918700
v 500.000200 0.000000 299.918900
v 1500.000000 0.000000 800.000000
v 500.000200 0.000000 31.541500
v 1800.205000 0.000000 299.918700
v 1800.205000 0.000000 800.000000
v 2100.000000 0.000000 800.000000
v 2100.000000 0.000000 299.918700
v 2100.000000 0.000000 31.541500
v 974.227100 0.000000 31.541500
v 500.000200 0.000000 -487.644800
v 1800.205000 0.000000 31.541500
v 2100.000000 0.000000 -487.644800
v 974.227100 0.000000 -487.644800
v 500.000200 0.000000 -1030.431000
v 1800.205000 0.000000 -487.644800
v 2100.000000 0.000000 -1030.431000
v 974.227100 0.000000 -1030.431000
v 500.000200 0.000000 -1400.000000
v 974.227100 0.000000 -1400.000000
v 1800.205000 0.000000 -1400.000000
v 1800.205000 0.000000 -1030.431000
v 2100.000000 0.000000 -1400.000000
# 39 vertices

# 0 UVs

vn 0.000000 1.000000 0.000000
vn 0.000000 1.000000 0.000000
vn 0.000000 1.000000 0.000000
vn 0.000000 1.000000 0.000000
vn 0.000000 1.000000 0.000000
vn 0.000000 1.000000 0.000000
vn 0.000000 1.000000 0.000000
vn 0.000000 1.000000 0.000000
vn 0.000000 1.000000 0.000000
vn 0.000000 1.000000 0.000000
vn 0.000000 1.000000 0.000000
vn 0.000000 1.000000 0.000000
vn 0.000000 1.000000 0.000000
vn 0.000000 1.000000 0.000000
vn 0.000000 1.000000 0.000000
vn 0.000000 1.000000 0.000000
vn 0.000000 1.000000 0.000000
vn 0.000000 1.000000 0.000000
vn 0.000000 1.000000 0.000000
vn 0.000000 1.000000 0.000000
vn 0.000000 1.000000 0.000000
vn 0.000000 1.000000 0.000000
vn 0.000000 1.000000 0.000000
vn 0.000000 1.000000 0.000000
vn 0.000000 1.000000 0.000000
vn 0.000000 1.000000 0.000000
vn 0.000000 1.000000 0.000000
vn 0.000000 1.000000 0.000000
vn 0.000000 1.000000 0.000000
vn 0.000000 1.000000 0.000000
vn 0.000000 1.000000 0.000000
vn 0.000000 1.000000 0.000000
vn 0.000000 1.000000 0.000000
vn 0.000000 1.000000 0.000000
vn 0.000000 1.000000 0.000000
vn 0.000000 1.000000 0.000000
vn 0.000000 1.000000 0.000000
vn 0.000000 1.000000 0.000000
vn 0.000000 1.000000 0.000000
# 39 Normals

g 9109989419691265461
f 1//1 2//2 3//3
f 3//3 2//2 4//4
f 3//3 4//4 5//5
f 5//5 4//4 6//6
f 7//7 4//4 2//2
f 6//6 4//4 8//8
f 9//9 4//4 7//7
f 8//8 4//4 9//9
f 10//10 9//9 7//7
f 8//8 9//9 11//11
f 12//12 9//9 10//10
f 11//11 9//9 12//12
f 10//10 13//13 12//12
f 12//12 13//13 11//11
f 14//14 13//13 10//10
f 15//15 16//16 14//14
f 14//14 16//16 13//13
f 13//13 17//17 11//11
f 13//13 16//16 17//17
f 17//17 18//18 11//11
f 16//16 19//19 17//17
f 18//18 17//17 20//20
f 17//17 19//19 21//21
f 19//19 22//22 21//21
f 23//23 21//21 22//22
f 24//24 21//21 23//23
f 25//25 21//21 24//24
f 20//20 17//17 26//26
f 17//17 21//21 26//26
f 20//20 26//26 27//27
f 28//28 21//21 25//25
f 26//26 21//21 28//28
f 29//29 28//28 25//25
f 27//27 26//26 30//30
f 27//27 30//30 31//31
f 32//32 26//26 28//28
f 32//32 28//28 29//29
f 30//30 26//26 32//32
f 33//33 32//32 29//29
f 31//31 30//30 34//34
f 31//31 34//34 35//35
f 35//35 34//34 36//36
f 36//36 34//34 37//37
f 38//38 30//30 32//32
f 34//34 30//30 38//38
f 38//38 32//32 33//33
f 37//37 34//34 38//38
f 39//39 38//38 33//33
f 37//37 38//38 39//39
# 49 Faces

#
# object 15373410837661082209
#

o 15373410837661082209
v -2099.999000 0.000000 1400.000000
v 500.000200 0.000000 1400.000000
v -2100.000000 0.000000 600.069800
v 500.000200 0.000000 600.069800
v 1500.000000 0.000000 800.000000
v 1500.000000 0.000000 1400.000000
v 500.000200 0.000000 -1400.000000
v 2100.000000 0.000000 -1400.000000
v 2100.000000 0.000000 800.000000
# 9 vertices

# 0 UVs

# 0 Normals

g 15373410837661082209
f 40// 41// 42//
f 42// 41// 43//
f 41// 44// 43//
f 45// 44// 41//
f 44// 46// 43//
f 47// 46// 44//
f 48// 47// 44//
# 7 Faces

#
# object 15267573496346644613
#

o 15267573496346644613
v -2099.999000 0.000000 1400.000000
v 500.000200 0.000000 1400.000000
v -2100.000000 0.000000 600.069800
v 500.000200 0.000000 600.069800
v 1500.000000 0.000000 800.000000
v 1500.000000 0.000000 1400.000000
v 500.000200 0.000000 -1400.000000
v 2100.000000 0.000000 -1400.000000
v 2100.000000 0.000000 800.000000
# 9 vertices

# 0 UVs

# 0 Normals

g 15267573496346644613
f 49// 50// 51//
f 51// 50// 52//
f 50// 53// 52//
f 54// 53// 50//
f 53// 55// 52//
f 56// 55// 53//
f 57// 56// 53//
# 7 Faces

