#
# object 12133401513465698339
#

o 12133401513465698339
v 164.193800 -2.707331 -134.497800
v 165.677200 -3.298395 -134.497800
v 164.193800 -3.298395 -134.497800
v 165.677200 -2.707270 -134.497800
v 165.677200 -3.298395 -134.497800
v 164.193800 -2.707331 -134.497800
v -195.987800 -2.707270 -134.497800
v -194.504400 -3.298395 -134.497800
v -195.987800 -3.298395 -134.497800
v -194.504400 -2.707331 -134.497800
v -194.504400 -3.298395 -134.497800
v -195.987800 -2.707270 -134.497800
v -194.504400 -2.707331 -134.497800
v 164.193800 -3.298395 -134.497800
v -194.504400 -3.298395 -134.497800
v 164.193800 -2.707331 -134.497800
v 164.193800 -3.298395 -134.497800
v -194.504400 -2.707331 -134.497800
v 168.754400 5.729925 -110.902100
v -199.065200 5.729925 -134.497800
v -199.065200 5.729925 -110.902100
v 168.754400 5.729925 -134.497800
v 168.754400 -1.413141 -102.259000
v -199.065200 5.729925 -110.902100
v -199.065200 -1.413141 -102.259000
v 168.754400 5.729925 -110.902100
v 168.754400 -3.298395 -102.259000
v -199.065200 -1.413141 -102.259000
v -199.065200 -3.298395 -102.259000
v 168.754400 -1.413141 -102.259000
v -195.987800 3.646856 -130.218700
v 165.677200 3.646856 -134.497800
v 165.677200 3.646856 -130.218700
v -195.987800 3.646856 -134.497800
v -195.987800 -2.707270 -130.218700
v -195.987800 3.646856 -134.497800
v -195.987800 3.646856 -130.218700
v -195.987800 -2.707270 -134.497800
v 165.677200 3.646856 -130.218700
v 165.677200 -2.707270 -134.497800
v 165.677200 -2.707270 -130.218700
v 165.677200 3.646856 -134.497800
v 165.677200 -2.707270 -130.218700
v 164.193800 -2.707331 -134.497800
v 164.193800 -2.707209 -130.218700
v 165.677200 -2.707270 -134.497800
v -194.504400 -2.707209 -130.218700
v -195.987800 -2.707270 -134.497800
v -195.987800 -2.707270 -130.218700
v -194.504400 -2.707331 -134.497800
v 162.188500 -1.259852 -130.218700
v 152.349200 -1.259852 -402.259000
v 152.349200 -1.259852 -130.218700
v 162.188500 -1.259852 -402.259000
v 161.057600 -2.707331 -402.259000
v 152.349200 -2.707331 -130.218700
v 152.349200 -2.707331 -402.259000
v 161.057600 -2.707331 -130.218700
v 161.057600 -2.707331 -402.259000
v 161.057600 -8.307294 -130.218700
v 161.057600 -2.707331 -130.218700
v 161.057600 -8.307294 -402.259000
v 152.349200 -2.707331 -130.218700
v 152.349200 -1.259852 -402.259000
v 152.349200 -2.707331 -402.259000
v 152.349200 -1.259852 -130.218700
v -187.811500 -1.259852 -402.259000
v -177.972200 -1.259852 -130.218700
v -177.972200 -1.259852 -402.259000
v -187.811500 -1.259852 -130.218700
v -187.811500 -1.259852 -402.259000
v -187.811500 -8.307294 -130.218700
v -187.811500 -1.259852 -130.218700
v -187.811500 -8.307294 -402.259000
v -177.972200 -2.707331 -130.218700
v -186.680600 -2.707331 -402.259000
v -177.972200 -2.707331 -402.259000
v -186.680600 -2.707331 -130.218700
v -186.680600 -8.307294 -130.218700
v -186.680600 -2.707331 -402.259000
v -186.680600 -2.707331 -130.218700
v -186.680600 -8.307294 -402.259000
v -177.972200 -2.707331 -130.218700
v -177.972200 -1.259852 -402.259000
v -177.972200 -1.259852 -130.218700
v -177.972200 -2.707331 -402.259000
v 162.188500 -8.307294 -402.259000
v 162.188500 -1.259852 -130.218700
v 162.188500 -8.307294 -130.218700
v 162.188500 -1.259852 -402.259000
v 168.754400 5.729925 -134.497800
v 168.754400 5.729925 -110.902100
v 168.754400 -1.413141 -102.259000
v 168.754400 -3.298395 -102.259000
v 168.754400 -3.298395 -134.497800
v -195.987800 3.646856 -130.218700
v -194.504400 -2.707209 -130.218700
v -195.987800 -2.707270 -130.218700
v 165.677200 3.646856 -130.218700
v 164.193800 -2.707209 -130.218700
v 165.677200 -2.707270 -130.218700
v -199.065200 5.729925 -110.902100
v -199.065200 5.729925 -134.497800
v -199.065200 -3.298395 -134.497800
v -199.065200 -1.413141 -102.259000
v -199.065200 -3.298395 -102.259000
v -195.987800 -3.298395 -134.497800
v -199.065200 -3.298395 -134.497800
v -195.987800 -2.707270 -134.497800
v -195.987800 3.646856 -134.497800
v -199.065200 5.729925 -134.497800
v 168.754400 5.729925 -134.497800
v 165.677200 3.646856 -134.497800
v 168.754400 -3.298395 -134.497800
v 165.677200 -2.707270 -134.497800
v 165.677200 -3.298395 -134.497800
# 116 vertices

# 0 UVs

vn 0.000000 0.000000 -1.000000
vn 0.000000 0.000000 -1.000000
vn 0.000000 0.000000 -1.000000
vn 0.000000 0.000000 -1.000000
vn 0.000000 0.000000 -1.000000
vn 0.000000 0.000000 -1.000000
vn 0.000000 0.000000 -1.000000
vn 0.000000 0.000000 -1.000000
vn 0.000000 0.000000 -1.000000
vn 0.000000 0.000000 -1.000000
vn 0.000000 0.000000 -1.000000
vn 0.000000 0.000000 -1.000000
vn 0.000000 0.000000 -1.000000
vn 0.000000 0.000000 -1.000000
vn 0.000000 0.000000 -1.000000
vn 0.000000 0.000000 -1.000000
vn 0.000000 0.000000 -1.000000
vn 0.000000 0.000000 -1.000000
vn 0.000000 1.000000 0.000000
vn 0.000000 1.000000 0.000000
vn 0.000000 1.000000 0.000000
vn 0.000000 1.000000 0.000000
vn 0.000000 0.770824 0.637049
vn 0.000000 0.770824 0.637049
vn 0.000000 0.770824 0.637049
vn 0.000000 0.770824 0.637049
vn 0.000000 0.000000 1.000000
vn 0.000000 0.000000 1.000000
vn 0.000000 0.000000 1.000000
vn 0.000000 0.000000 1.000000
vn 0.000000 -1.000000 0.000000
vn 0.000000 -1.000000 0.000000
vn 0.000000 -1.000000 0.000000
vn 0.000000 -1.000000 0.000000
vn 1.000000 0.000000 0.000000
vn 1.000000 0.000000 0.000000
vn 1.000000 0.000000 0.000000
vn 1.000000 0.000000 0.000000
vn -1.000000 0.000000 0.000000
vn -1.000000 0.000000 0.000000
vn -1.000000 0.000000 0.000000
vn -1.000000 0.000000 0.000000
vn 0.000000 1.000000 -0.000014
vn 0.000000 1.000000 -0.000014
vn 0.000000 1.000000 -0.000014
vn 0.000000 1.000000 -0.000014
vn 0.000000 1.000000 -0.000014
vn 0.000000 1.000000 -0.000014
vn 0.000000 1.000000 -0.000014
vn 0.000000 1.000000 -0.000014
vn 0.000000 1.000000 0.000000
vn 0.000000 1.000000 0.000000
vn 0.000000 1.000000 0.000000
vn 0.000000 1.000000 0.000000
vn 0.000000 -1.000000 0.000000
vn 0.000000 -1.000000 0.000000
vn 0.000000 -1.000000 0.000000
vn 0.000000 -1.000000 0.000000
vn -1.000000 0.000000 0.000000
vn -1.000000 0.000000 0.000000
vn -1.000000 0.000000 0.000000
vn -1.000000 0.000000 0.000000
vn -1.000000 0.000000 0.000000
vn -1.000000 0.000000 0.000000
vn -1.000000 0.000000 0.000000
vn -1.000000 0.000000 0.000000
vn 0.000000 1.000000 0.000000
vn 0.000000 1.000000 0.000000
vn 0.000000 1.000000 0.000000
vn 0.000000 1.000000 0.000000
vn -1.000000 0.000000 0.000000
vn -1.000000 0.000000 0.000000
vn -1.000000 0.000000 0.000000
vn -1.000000 0.000000 0.000000
vn 0.000000 -1.000000 0.000000
vn 0.000000 -1.000000 0.000000
vn 0.000000 -1.000000 0.000000
vn 0.000000 -1.000000 0.000000
vn 1.000000 0.000000 0.000000
vn 1.000000 0.000000 0.000000
vn 1.000000 0.000000 0.000000
vn 1.000000 0.000000 0.000000
vn 1.000000 0.000000 0.000000
vn 1.000000 0.000000 0.000000
vn 1.000000 0.000000 0.000000
vn 1.000000 0.000000 0.000000
vn 1.000000 0.000000 0.000000
vn 1.000000 0.000000 0.000000
vn 1.000000 0.000000 0.000000
vn 1.000000 0.000000 0.000000
vn 1.000000 0.000000 0.000000
vn 1.000000 0.000000 0.000000
vn 1.000000 0.000000 0.000000
vn 1.000000 0.000000 0.000000
vn 1.000000 0.000000 0.000000
vn 0.000000 0.000000 -1.000000
vn 0.000000 0.000000 -1.000000
vn 0.000000 0.000000 -1.000000
vn 0.000000 0.000000 -1.000000
vn 0.000000 0.000000 -1.000000
vn 0.000000 0.000000 -1.000000
vn -1.000000 0.000000 0.000000
vn -1.000000 0.000000 0.000000
vn -1.000000 0.000000 0.000000
vn -1.000000 0.000000 0.000000
vn -1.000000 0.000000 0.000000
vn 0.000000 0.000000 -1.000000
vn 0.000000 0.000000 -1.000000
vn 0.000000 0.000000 -1.000000
vn 0.000000 0.000000 -1.000000
vn 0.000000 0.000000 -1.000000
vn 0.000000 0.000000 -1.000000
vn 0.000000 0.000000 -1.000000
vn 0.000000 0.000000 -1.000000
vn 0.000000 0.000000 -1.000000
vn 0.000000 0.000000 -1.000000
# 116 Normals

g 12133401513465698339
f 1//1 2//2 3//3
f 4//4 5//5 6//6
f 7//7 8//8 9//9
f 10//10 11//11 12//12
f 13//13 14//14 15//15
f 16//16 17//17 18//18
f 19//19 20//20 21//21
f 22//22 20//20 19//19
f 23//23 24//24 25//25
f 26//26 24//24 23//23
f 27//27 28//28 29//29
f 30//30 28//28 27//27
f 31//31 32//32 33//33
f 34//34 32//32 31//31
f 35//35 36//36 37//37
f 38//38 36//36 35//35
f 39//39 40//40 41//41
f 42//42 40//40 39//39
f 43//43 44//44 45//45
f 46//46 44//44 43//43
f 47//47 48//48 49//49
f 50//50 48//48 47//47
f 51//51 52//52 53//53
f 54//54 52//52 51//51
f 55//55 56//56 57//57
f 58//58 56//56 55//55
f 59//59 60//60 61//61
f 62//62 60//60 59//59
f 63//63 64//64 65//65
f 66//66 64//64 63//63
f 67//67 68//68 69//69
f 70//70 68//68 67//67
f 71//71 72//72 73//73
f 74//74 72//72 71//71
f 75//75 76//76 77//77
f 78//78 76//76 75//75
f 79//79 80//80 81//81
f 82//82 80//80 79//79
f 83//83 84//84 85//85
f 86//86 84//84 83//83
f 87//87 88//88 89//89
f 90//90 88//88 87//87
f 91//91 92//92 93//93
f 94//94 91//91 93//93
f 95//95 91//91 94//94
f 96//96 97//97 98//98
f 99//99 97//97 96//96
f 100//100 97//97 99//99
f 101//101 100//100 99//99
f 102//102 103//103 104//104
f 105//105 102//102 104//104
f 106//106 105//105 104//104
f 107//107 108//108 109//109
f 108//108 110//110 109//109
f 111//111 110//110 108//108
f 111//111 112//112 110//110
f 110//110 112//112 113//113
f 112//112 114//114 113//113
f 114//114 115//115 113//113
f 116//116 115//115 114//114
# 60 Faces

#
# object 3103972870829320911
#

o 3103972870829320911
v 152.349400 0.290649 -96.480740
v 152.349400 -0.290649 -137.542600
v 152.349400 0.290649 -137.542600
v 152.349400 -0.290649 -96.480740
v 152.349400 -0.290649 104.856000
v 152.349400 0.290649 117.486700
v 152.349400 -0.290649 117.486700
v 152.349400 0.290649 104.856000
v 152.349400 -0.290649 16.712730
v 152.349400 0.290649 16.712760
v 152.349400 -0.290649 104.856000
v 152.349400 0.290649 16.712760
v 152.349400 -0.290649 -96.480740
v 152.349400 0.290649 -96.480740
v 152.349400 -0.290649 16.712730
v 152.349400 -0.290649 130.218700
v 152.349400 0.290649 134.497800
v 152.349400 -0.290649 134.497800
v 152.349400 0.290649 130.218700
v 152.349400 -0.290649 117.486700
v 152.349400 -0.290649 130.218700
v 152.349400 0.290649 117.486700
v -177.972200 -0.290649 -137.542600
v 152.349400 0.290649 -137.542600
v 152.349400 -0.290649 -137.542600
v -177.972200 0.290649 -137.542600
v -177.972200 0.290649 117.486700
v -177.972200 -0.290649 104.856000
v -177.972200 -0.290649 117.486700
v -177.972200 0.290649 104.856000
v -177.972200 -0.290649 16.712720
v -177.972200 0.290649 16.712730
v -177.972200 -0.290649 104.856000
v -177.972200 0.290649 134.497800
v -177.972200 -0.290649 130.218700
v -177.972200 -0.290649 134.497800
v -177.972200 0.290649 130.218700
v -177.972200 -0.290649 117.486700
v -177.972200 -0.290649 130.218700
v -177.972200 0.290649 117.486700
v 152.349400 -0.290649 104.856000
v -177.972200 -0.290649 16.712720
v 152.349400 -0.290649 16.712730
v -177.972200 -0.290649 104.856000
v 152.349400 -0.290649 117.486700
v -177.972200 -0.290649 117.486700
v 152.349400 -0.290649 -96.480740
v -177.972200 -0.290649 -137.542600
v 152.349400 -0.290649 -137.542600
v -177.972200 -0.290649 -96.480740
v 152.349400 -0.290649 16.712730
v -177.972200 -0.290649 16.712720
v -177.972200 -0.290649 130.218700
v 152.349400 -0.290649 134.497800
v -177.972200 -0.290649 134.497800
v 152.349400 -0.290649 130.218700
v -177.972200 -0.290649 117.486700
v 152.349400 -0.290649 117.486700
v -177.972200 0.290649 16.712730
v 152.349400 0.290649 104.856000
v 152.349400 0.290649 16.712760
v -177.972200 0.290649 104.856000
v 152.349400 0.290649 117.486700
v -177.972200 0.290649 117.486700
v -177.972200 0.290649 -137.542600
v 152.349400 0.290649 -96.480740
v 152.349400 0.290649 -137.542600
v -177.972200 0.290649 -96.480740
v 152.349400 0.290649 16.712760
v -177.972200 0.290649 16.712730
v 152.349400 0.290649 117.486700
v -177.972200 0.290649 117.486700
v 152.349400 0.290649 130.218700
v -177.972200 0.290649 130.218700
v 152.349400 0.290649 134.497800
v -177.972200 0.290649 134.497800
v -177.972200 -0.290649 -137.542600
v -177.972200 0.290649 -96.480740
v -177.972200 0.290649 -137.542600
v -177.972200 -0.290649 -96.480740
v -177.972200 0.290649 16.712730
v -177.972200 -0.290649 16.712720
# 82 vertices

# 0 UVs

vn 1.000000 0.000000 0.000000
vn 1.000000 0.000000 0.000000
vn 1.000000 0.000000 0.000000
vn 1.000000 0.000000 0.000000
vn 1.000000 0.000000 0.000000
vn 1.000000 0.000000 0.000000
vn 1.000000 0.000000 0.000000
vn 1.000000 0.000000 0.000000
vn 1.000000 0.000000 0.000000
vn 1.000000 0.000000 0.000000
vn 1.000000 0.000000 0.000000
vn 1.000000 0.000411 0.000000
vn 1.000000 0.000411 0.000000
vn 1.000000 0.000411 0.000000
vn 1.000000 0.000411 0.000000
vn 1.000000 0.000000 0.000000
vn 1.000000 0.000000 0.000000
vn 1.000000 0.000000 0.000000
vn 1.000000 0.000000 0.000000
vn 1.000000 0.000000 0.000000
vn 1.000000 0.000000 0.000000
vn 1.000000 0.000000 0.000000
vn 0.000000 0.000000 -1.000000
vn 0.000000 0.000000 -1.000000
vn 0.000000 0.000000 -1.000000
vn 0.000000 0.000000 -1.000000
vn -1.000000 0.000000 0.000000
vn -1.000000 0.000000 0.000000
vn -1.000000 0.000000 0.000000
vn -1.000000 0.000000 0.000000
vn -1.000000 0.000000 0.000000
vn -1.000000 0.000000 0.000000
vn -1.000000 0.000000 0.000000
vn -1.000000 0.000000 0.000000
vn -1.000000 0.000000 0.000000
vn -1.000000 0.000000 0.000000
vn -1.000000 0.000000 0.000000
vn -1.000000 0.000000 0.000000
vn -1.000000 0.000000 0.000000
vn -1.000000 0.000000 0.000000
vn 0.000000 -1.000000 0.000000
vn 0.000000 -1.000000 0.000000
vn 0.000000 -1.000000 0.000000
vn 0.000000 -1.000000 0.000000
vn 0.000000 -1.000000 0.000000
vn 0.000000 -1.000000 0.000000
vn 0.000000 -1.000000 0.000000
vn 0.000000 -1.000000 0.000000
vn 0.000000 -1.000000 0.000000
vn 0.000000 -1.000000 0.000000
vn 0.000000 -1.000000 0.000000
vn 0.000000 -1.000000 0.000000
vn 0.000000 -1.000000 0.000000
vn 0.000000 -1.000000 0.000000
vn 0.000000 -1.000000 0.000000
vn 0.000000 -1.000000 0.000000
vn 0.000000 -1.000000 0.000000
vn 0.000000 -1.000000 0.000000
vn 0.000000 1.000000 0.000000
vn 0.000000 1.000000 0.000000
vn 0.000000 1.000000 0.000000
vn 0.000000 1.000000 0.000000
vn 0.000000 1.000000 0.000000
vn 0.000000 1.000000 0.000000
vn 0.000000 1.000000 0.000000
vn 0.000000 1.000000 0.000000
vn 0.000000 1.000000 0.000000
vn 0.000000 1.000000 0.000000
vn 0.000000 1.000000 0.000000
vn 0.000000 1.000000 0.000000
vn 0.000000 1.000000 0.000000
vn 0.000000 1.000000 0.000000
vn 0.000000 1.000000 0.000000
vn 0.000000 1.000000 0.000000
vn 0.000000 1.000000 0.000000
vn 0.000000 1.000000 0.000000
vn -1.000000 0.000000 0.000000
vn -1.000000 0.000000 0.000000
vn -1.000000 0.000000 0.000000
vn -1.000000 0.000000 0.000000
vn -1.000000 0.000000 0.000000
vn -1.000000 0.000000 0.000000
# 82 Normals

g 3103972870829320911
f 117//117 118//118 119//119
f 120//120 118//118 117//117
f 121//121 122//122 123//123
f 124//124 122//122 121//121
f 124//124 125//125 126//126
f 127//127 125//125 124//124
f 128//128 129//129 130//130
f 131//131 129//129 128//128
f 132//132 133//133 134//134
f 135//135 133//133 132//132
f 136//136 135//135 137//137
f 138//138 135//135 136//136
f 139//139 140//140 141//141
f 142//142 140//140 139//139
f 143//143 144//144 145//145
f 146//146 144//144 143//143
f 147//147 146//146 148//148
f 149//149 146//146 147//147
f 150//150 151//151 152//152
f 153//153 151//151 150//150
f 153//153 154//154 155//155
f 156//156 154//154 153//153
f 157//157 158//158 159//159
f 160//160 158//158 157//157
f 157//157 161//161 160//160
f 160//160 161//161 162//162
f 163//163 164//164 165//165
f 166//166 164//164 163//163
f 167//167 166//166 163//163
f 168//168 166//166 167//167
f 169//169 170//170 171//171
f 172//172 170//170 169//169
f 173//173 172//172 169//169
f 174//174 172//172 173//173
f 175//175 176//176 177//177
f 178//178 176//176 175//175
f 176//176 178//178 179//179
f 179//179 178//178 180//180
f 181//181 182//182 183//183
f 184//184 182//182 181//181
f 184//184 185//185 182//182
f 186//186 185//185 184//184
f 187//187 188//188 189//189
f 189//189 188//188 190//190
f 189//189 190//190 191//191
f 191//191 190//190 192//192
f 193//193 194//194 195//195
f 196//196 194//194 193//193
f 196//196 197//197 194//194
f 198//198 197//197 196//196
# 50 Faces

#
# object 14759680340143887981
#

o 14759680340143887981
v -165.160700 3.875639 18.985230
v 165.160700 -3.875639 18.985230
v 165.160700 3.875639 18.985230
v -165.160700 -3.875639 18.985230
v -165.160700 3.875639 -18.985230
v 165.160700 3.875639 18.985230
v 165.160700 3.875639 -18.985230
v -165.160700 3.875639 18.985230
v -165.160700 -3.875639 -18.985230
v 165.160700 3.875639 -18.985230
v 165.160700 -3.875639 -18.985230
v -165.160700 3.875639 -18.985230
v -165.160700 -3.875639 18.985230
v 165.160700 -3.875639 -18.985230
v 165.160700 -3.875639 18.985230
v -165.160700 -3.875639 -18.985230
v 165.160700 3.875639 18.985230
v 165.160700 -3.875639 -18.985230
v 165.160700 3.875639 -18.985230
v 165.160700 -3.875639 18.985230
v -165.160700 3.875639 -18.985230
v -165.160700 -3.875639 18.985230
v -165.160700 3.875639 18.985230
v -165.160700 -3.875639 -18.985230
# 24 vertices

# 0 UVs

# 0 Normals

g 14759680340143887981
f 199// 200// 201//
f 202// 200// 199//
f 203// 204// 205//
f 206// 204// 203//
f 207// 208// 209//
f 210// 208// 207//
f 211// 212// 213//
f 214// 212// 211//
f 215// 216// 217//
f 218// 216// 215//
f 219// 220// 221//
f 222// 220// 219//
# 12 Faces

